<?xml version="1.0" encoding="UTF-8" standalone="no"?>
<svg
   xmlns:dc="http://purl.org/dc/elements/1.1/"
   xmlns:cc="http://creativecommons.org/ns#"
   xmlns:rdf="http://www.w3.org/1999/02/22-rdf-syntax-ns#"
   xmlns:svg="http://www.w3.org/2000/svg"
   xmlns="http://www.w3.org/2000/svg"
   version="1.1"
   id="svg2"
   height="526"
   width="684">
  <title
     id="title3366">Bird</title>
  <defs
     id="defs4" />
  <metadata
     id="metadata7">
    <rdf:RDF>
      <cc:Work
         rdf:about="">
        <dc:format>image/svg+xml</dc:format>
        <dc:type
           rdf:resource="http://purl.org/dc/dcmitype/StillImage" />
        <dc:title>Bird</dc:title>
        <cc:license
           rdf:resource="http://creativecommons.org/publicdomain/zero/1.0/" />
        <dc:description>Pennsylvanian folk art motif of a bird. Encyclopedia bears the notice, &quot;All these pictures are in the public domain&quot;</dc:description>
        <dc:source>Encyclopedia of Design. New York City: Hart Publishing Company. Print. ISBN 0-8055-1276-4. Page 330.</dc:source>
        <dc:date>2016-03-08</dc:date>
        <dc:creator>
          <cc:Agent>
            <dc:title>mazeo</dc:title>
          </cc:Agent>
        </dc:creator>
        <dc:publisher>
          <cc:Agent>
            <dc:title>openclipart.org</dc:title>
          </cc:Agent>
        </dc:publisher>
        <dc:language>en</dc:language>
        <dc:subject>
          <rdf:Bag>
            <rdf:li>bird</rdf:li>
            <rdf:li>folk art</rdf:li>
            <rdf:li>American folk art</rdf:li>
            <rdf:li>Pennsylvanian folk art</rdf:li>
          </rdf:Bag>
        </dc:subject>
        <dc:contributor>
          <cc:Agent>
            <dc:title>mazeo</dc:title>
          </cc:Agent>
        </dc:contributor>
      </cc:Work>
      <cc:License
         rdf:about="http://creativecommons.org/publicdomain/zero/1.0/">
        <cc:permits
           rdf:resource="http://creativecommons.org/ns#Reproduction" />
        <cc:permits
           rdf:resource="http://creativecommons.org/ns#Distribution" />
        <cc:permits
           rdf:resource="http://creativecommons.org/ns#DerivativeWorks" />
      </cc:License>
    </rdf:RDF>
  </metadata>
  <g
     transform="translate(101.23767,-475.72336)"
     id="layer1">
    <g
       transform="matrix(0.54052879,0,0,0.54052879,-45.61906,459.4355)"
       id="g3357">
      <path
         style="fill:#000000"
         d="m 192.55159,902.80075 c 11.23215,-9.1375 21.67581,-20.90455 29.3218,-33.3766 c 28.77875,-51.52994 8.78886,65.467 28.4565,41.3052 c 22.10286,-38.42045 -34.98922,-63.60839 -3.5236,-94.9156 c 6.85833,-23.63535 53.97075,-39.2447 25.96969,-65.30363 c -21.18173,-34.93721 24.7493,-32.69326 40.63481,-28.75919 c 22.41975,8.26134 47.41652,62.06528 23.4249,86.49752 c -20.04648,20.4183 -29.53599,52.71465 -39.5294,76.9525 c -29.246,-8.78637 -60.38204,88.2509 -31.6074,42.1769 c 35.23445,-58.57797 12.77616,10.2976 1.4571,33.5582 c -21.70286,47.40165 23.15305,8.7647 20.791,-20.3456 c 18.42149,-61.25193 9.20222,16.6131 -0.0966,36.9504 c -30.17463,45.28095 19.48978,18.669 12.3158,-12.3373 c 20.42861,-30.4178 -4.58534,-68.3044 18.5811,-96.0026 c 13.37547,-26.88957 30.42361,-87.4799 64.32986,-78.8125 c 11.4526,-15.26979 -28.76908,-64.4843 5.2291,-70.18752 c 13.576,6.7705 31.5333,-18.30001 42.4412,-7.4855 c 7.3953,-7.75667 28.2251,-3.39343 47.6625,-4.9917 c 19.1165,5.03297 50.6297,-6.4952 70.8963,-6.0477 c 17.4967,-5.69699 39.0808,-2.24869 59.2438,4.18021 c 14.1126,-16.19454 33.7204,-7.36994 56.2424,4.32219 c 23.0841,4.20523 48.8752,19.19079 75.6027,27.49432 c 25.3825,12.79825 56.1984,17.06396 75.8739,35.2736 c 23.9281,14.15012 57.7061,33.77923 84.2591,34.6856 c 17.3662,24.96479 58.3785,28.35709 76.7788,47.7908 c 10.7454,7.50752 55.99635,53.2864 47.00375,14.6702 c -21.4671,-13.52854 -2.6791,-27.61759 -17.4133,-43.8959 c -15.78955,-2.82679 -34.37845,-25.10695 -32.58525,-36.16871 c 27.68865,14.57049 56.46455,26.01215 85.15755,36.78456 c 7.0789,-18.08718 -9.9636,-32.97298 -14.8967,-44.33981 c -1.6369,-16.7648 -20.3112,-30.38345 -9.9769,-44.27354 c 32.4282,8.54579 55.5867,31.57685 83.1416,45.6489 c 31.6407,-13.04355 -29.1899,-43.52732 -14.4314,-46.96 c -29.0201,-3.92561 -12.6996,-14.36965 -22.9303,-25.69057 c -14.7915,1.14722 -14.8361,-9.79994 -25.4201,-16.9045 c 14.5641,-18.87325 51.081,-16.02009 73.3761,-26.76338 c 10.053,-7.78703 45.1997,-18.45568 27.7603,-39.59107 c -17.4189,0.41298 -43.9627,10.54586 -70.7745,9.23318 c -39.0031,-0.0535 -81.5321,-10.39485 -118.70325,-6.22118 c -5.8437,-15.23925 -36.0717,-2.18201 -44.048,-14.54895 c -29.6028,-2.92155 -56.3911,-12.06598 -84.9038,-24.15807 c -43.6885,-6.83853 -82.1616,-32.02319 -126.5177,-38.20134 c 28.3415,14.27963 -104.7429,-34.86522 -66.6237,-27.05854 c -18.3017,5.19521 8.9444,-16.66357 30.7849,-5.71571 c 1.7816,-15.58376 31.315,-4.04432 29.1246,-19.01628 c 21.8188,-10.45129 39.2739,-0.27375 44.8937,-15.8139 c 16.37,12.30564 14.6746,-11.56291 43.7217,-14.28899 c 0.1244,-11.4794 19.9747,-9.7326 32.7749,-22.92406 c 8.0118,-24.04989 39.9849,-8.6293 46.5377,-34.22715 c -12.5307,7.26859 59.7864,-52.62166 -2.0573,-35.25686 c -14.0831,12.67573 -30.2523,25.58238 -57.8292,27.54865 c -20.0522,1.6394 -41.801,21.81147 -53.1229,7.42068 c -25.7485,2.23007 -27.8322,12.775 -53.6912,4.81888 c -15.3637,1.39416 -36.4528,7.28393 -62.018,-5.32836 c -12.84,4.68419 -30.8536,-18.41886 -45.8343,-16.5 c -9.3376,-6.624 -41.7492,-16.6451 -60.0414,-27.43288 c -30.3749,-2.54221 -58.2684,-24.10418 -89.5051,-27.51102 c -28.3623,-0.90911 -48.6876,-16.13516 -82.27386,-10.16351 c -27.21702,-11.86078 -76.55774,42.02355 -72.516,-9.08697 c -10.82263,-26.68842 -13.75609,-52.28074 -22.3268,-79.60886 c -13.7869,-24.8468 -19.45145,-55.34761 -36.8368,-79.04293 c -21.95377,-44.55679 -58.98255,-84.98168 -103.1153,-109.40383 c -17.68215,-23.0146 -60.0951,-29.02553 -85.02324,-19.34615 c -13.78894,-4.21127 -53.09628,12.12527 -57.64856,32.78603 c -12.66394,11.12993 -28.43007,33.7606 -23.1131,48.74846 c -17.47832,19.75495 -54.85988,30.94695 -58.1385,62.35382 c -9.23652,9.13289 -14.19685,54.03689 2.4423,31.81683 c 21.95295,-33.36895 58.92419,-38.05797 94.10463,-34.34139 c 37.13045,2.47378 59.78268,34.94499 79.49187,62.77837 c 29.39983,40.15624 15.86098,91.69673 -3.5557,130.41438 c -10.70792,16.29054 -18.31903,50.381 -24.8044,79.78965 c 0.38246,21.06162 -6.4629,46.17351 -6.97869,67.55407 c -0.90159,-12.85785 7.45734,35.31451 14.88509,54.14472 c 0.70421,17.97706 3.50008,18.66535 10.80856,43.34187 c 7.30848,24.67652 16.07762,24.609 32.17765,43.70078 c -3.09287,23.13239 22.15156,32.21404 33.74523,41.31712 c 14.0941,21.57465 36.8147,18.90179 58.96776,22.23348 c 19.96793,6.75639 34.58005,2.77942 37.2695,29.15118 c 28.58104,37.21382 7.05469,54.32991 -14.7017,83.5763 c -28.87522,4.63046 -43.686,6.25098 -54.9842,39.4086 c -5.92409,46.7134 11.30479,2.45749 20.45791,-13.93802 c 33.71178,-27.87712 25.9726,12.90357 3.64739,27.60342"
         id="path2930" />
      <path
         style="fill:#ffff00"
         d="m 62.19308,543.3471 c 6.11954,39.59965 5.3576,61.83233 20.45121,72.40548 c 15.09361,10.57315 22.63004,47.69578 44.1375,60.44839 c 19.19997,14.09954 41.71071,33.33254 64.4693,32.3922 c 9.57672,7.67191 18.82964,4.74094 35.5765,4.1167 c 15.02922,6.16129 25.84554,-16.59719 45.27122,-4.5794 c 10.30491,5.0048 19.92977,-7.77713 43.64478,0.6023 c 18.22588,3.12282 35.76071,0.50487 58.98876,-2.6451 c 4.7079,6.16791 44.7783,-9.14362 62.838,-8.8863 c 23.2599,-3.37352 13.925,10.61221 33.0218,-2 c 7.7735,-8.09785 24.3763,20.03597 16.3107,-4.83 c 17.8483,10.06471 45.5602,-4.82654 60.7595,-0.6743 c 23.0174,-10.01657 48.8878,4.23431 67.575,-0.17785 c 12.3143,-3.45023 -8.1463,-20.08447 13.6522,-15.18489 c -3.224,-20.08564 -8.1884,-43.50318 -5.999,-59.13336 c -1.2787,-11.24448 1.2745,-34.73179 -6.015,-53.05451 c -3.9096,-23.16297 -7.8693,-33.54062 -17.8797,-20.86408 c -17.0701,-11.20994 -32.2961,15.33488 -51.4705,12.20356 c -22.7563,3.95507 -35.5487,3.4398 -59.2738,10.10813 c -30.5251,8.80889 -50.3104,-3.91497 -78.553,2.73943 c -20.1745,-8.90204 -39.91004,-0.60965 -59.81137,-8.55356 c -15.78503,0.59317 -44.27988,-5.26027 -58.39979,-17.32901 c -13.92602,-10.53032 -36.68958,-15.9681 -50.8118,-37.34531 c -13.89579,-20.45783 -26.48573,-48.30931 -21.1683,-77.76468 c 13.04937,-16.81383 11.77645,-31.2901 30.84444,-40.18421 c 11.08189,-7.46269 16.46902,-25.68704 32.66546,-29.9558 c 5.50083,-18.16202 -9.97079,-60.95343 -18.04017,-88.75134 c -7.60409,-41.11824 -30.81371,-77.35226 -46.66753,-115.84526 c -22.06194,-28.25481 -38.73821,-55.4124 -69.47254,-73.38319 c -9.64596,24.87847 -21.47137,61.15039 -36.49296,80.97979 c -8.99383,19.94379 -28.9798,33.22924 -40.6111,49.97183 c 17.52497,22.51035 34.45542,47.14972 37.3246,76.48778 c 3.27877,28.75118 3.74071,50.77855 -13.7565,76.12728 c -15.58748,26.05713 -30.2234,56.71609 -27.5229,82.77136 c -10.57223,38.40758 -11.70455,60.18827 -5.58501,99.78792 z"
         id="path2928" />
      <path
         style="fill:#00ffff"
         d="m 28.80339,112.94034 c -2.02131,19.84787 23.45822,25.57013 38.20408,15.5725 c 25.76059,-43.77068 -45.31265,-68.37202 -38.20408,-15.5725 z"
         id="path2926" />
      <path
         style="fill:#000000"
         d="m 33.03169,115.40441 c 3.69018,-50.18935 48.57669,14.88165 0,0 z"
         id="path2924" />
      <path
         style="fill:#ff0000"
         d="m -83.01571,188.45097 c 16.95889,-35.84769 87.16783,-6.25199 55.324,-48.85398 c -13.77182,-24.06984 -68.79507,41.42897 -55.324,48.85398 z"
         id="path2912" />
      <path
         style="fill:#ffff00"
         d="m 268.30209,773.85595 c 17.68078,-30.3403 -53.26874,-74.74341 -23.0182,-26.0831 c -1.05646,15.67896 16.89852,27.5452 23.0182,26.0831 z"
         id="path2922" />
      <path
         style="fill:#ffff00"
         d="m 363.46889,774.56855 c 18.77596,-10.5113 -1.49055,-67.52917 -12.07573,-51.17448 c -27.6153,-9.25678 3.19743,57.93439 12.07573,51.17448 z"
         id="path2920" />
    </g>
  </g>
</svg>
